PathFileType	4	(X/Y/Z)	ptf.trc
DataRate	CameraRate	NumFrames	NumMarkers	Units	OrigDataRate	OrigDataStartFrame	OrigNumFrames
60.00	60.00	5	39	m	60.00	95	151
Frame#	Time	Sternum				R.Acromium				L.Acromium				Top.Head				R.ASIS				L.ASIS				V.Sacral				R.Thigh.Upper				R.Thigh.Front				R.Thigh.Rear				R.Knee.Lat				R.Knee.Med				R.Shank.Upper				R.Shank.Front				R.Shank.Rear				R.Ankle.Lat				R.Ankle.Med				R.Heel				R.Midfoot.Sup				R.Midfoot.Lat				R.Toe.Lat				R.Toe.Med				R.Toe.Tip				L.Thigh.Upper				L.Thigh.Front				L.Thigh.Rear				L.Knee.Lat				L.Knee.Med				L.Shank.Upper				L.Shank.Front				L.Shank.Rear				L.Ankle.Lat				L.Ankle.Med				L.Heel				L.Midfoot.Sup				L.Midfoot.Lat				L.Toe.Lat				L.Toe.Med				L.Toe.Tip				
		X1	Y1	Z1		X2	Y2	Z2		X3	Y3	Z3		X4	Y4	Z4		X5	Y5	Z5		X6	Y6	Z6		X7	Y7	Z7		X8	Y8	Z8		X9	Y9	Z9		X10	Y10	Z10		X11	Y11	Z11		X12	Y12	Z12		X13	Y13	Z13		X14	Y14	Z14		X15	Y15	Z15		X16	Y16	Z16		X17	Y17	Z17		X18	Y18	Z18		X19	Y19	Z19		X20	Y20	Z20		X21	Y21	Z21		X22	Y22	Z22		X23	Y23	Z23		X24	Y24	Z24		X25	Y25	Z25		X26	Y26	Z26		X27	Y27	Z27		X28	Y28	Z28		X29	Y29	Z29		X30	Y30	Z30		X31	Y31	Z31		X32	Y32	Z32		X33	Y33	Z33		X34	Y34	Z34		X35	Y35	Z35		X36	Y36	Z36		X37	Y37	Z37		X38	Y38	Z38		X39	Y39	Z39		
95	1.56667	0.650579	1.39936	-0.010161		0.534646	1.54872	0.138756		0.572346	1.53974	-0.199904		0.690536	1.78695	-0.0214594		0.611042	1.08596	0.125499		0.621979	1.07247	-0.136138		0.418623	1.06562	-0.000813665		0.631468	0.787023	0.200952		0.724253	0.746203	0.124286		0.66412	0.669775	0.202338		0.659993	0.575196	0.186103		0.688551	0.554644	0.0688233		0.618964	0.518805	0.191551		0.652911	0.435455	0.150127		0.565489	0.450219	0.196971		0.363565	0.252498	0.150349		0.396178	0.248668	0.0657466		0.308867	0.280891	0.086945		0.423426	0.187718	0.0754977		0.384346	0.178342	0.177072		0.428102	0.0983515	0.196158		0.460766	0.105033	0.0921247		0.496944	0.0627555	0.132443		0.577161	0.759706	-0.176217		0.668413	0.730867	-0.109666		0.581194	0.651652	-0.15465		0.571111	0.520838	-0.129756		0.586907	0.52862	-0.0148424		0.564427	0.440741	-0.141035		0.609741	0.388351	-0.0889395		0.541584	0.399391	-0.147507		0.530047	0.0871598	-0.100108		0.547925	0.113207	-0.011185		0.456024	0.0750956	-0.0444867		0.628065	0.0812247	-0.0167017		0.610856	0.0582327	-0.112826		0.673792	0.0322116	-0.116517		0.689615	0.0560378	-0.0169782		0.739117	0.0501225	-0.0409764		
96	1.58333	0.649137	1.39981	-0.0103979		0.532948	1.54931	0.138167		0.571818	1.54039	-0.200361		0.68982	1.78732	-0.0214135		0.610117	1.08713	0.12368		0.618953	1.07246	-0.137973		0.416673	1.06647	-0.00100602		0.636335	0.790799	0.198784		0.729707	0.753036	0.12127		0.672444	0.674562	0.19945		0.670989	0.579966	0.182859		0.699263	0.560722	0.0652883		0.632236	0.520773	0.188535		0.671099	0.439707	0.146897		0.583339	0.448897	0.194526		0.394144	0.238509	0.149996		0.426164	0.236638	0.065102		0.336971	0.262695	0.0869931		0.457746	0.177834	0.0748137		0.420347	0.16614	0.176779		0.469839	0.0895351	0.195744		0.501006	0.0980768	0.091388		0.540456	0.0586424	0.131519		0.569067	0.75884	-0.176679		0.659437	0.727672	-0.109974		0.570249	0.650731	-0.155045		0.556722	0.520239	-0.130093		0.572544	0.527675	-0.0151598		0.548893	0.440181	-0.141319		0.593663	0.387391	-0.0891567		0.525652	0.399051	-0.147774		0.511041	0.0869827	-0.100152		0.529119	0.11292	-0.0112372		0.437012	0.0750478	-0.0444442		0.609095	0.0809051	-0.0168637		0.591736	0.0579605	-0.112972		0.654628	0.031843	-0.116745		0.670606	0.0556231	-0.0172194		0.72007	0.0496365	-0.041278		
97	1.6	0.648276	1.40006	-0.0105812		0.532089	1.54932	0.138231		0.571296	1.54119	-0.200279		0.68937	1.78756	-0.0206062		0.609489	1.08808	0.122236		0.617256	1.07227	-0.139384		0.415532	1.06697	-0.00157276		0.640655	0.793851	0.196666		0.734371	0.758667	0.118358		0.679565	0.67852	0.196601		0.680281	0.583983	0.179626		0.708194	0.565898	0.0617858		0.643921	0.521673	0.185538		0.688207	0.443499	0.143785		0.600433	0.446456	0.192177		0.426647	0.222721	0.149965		0.457971	0.22288	0.0647904		0.367217	0.242101	0.0873632		0.494076	0.166754	0.0744802		0.458572	0.152736	0.17683		0.513996	0.0802806	0.195693		0.543509	0.0906617	0.0910237		0.586231	0.054599	0.130975		0.56139	0.757722	-0.177097		0.65064	0.723879	-0.110188		0.559271	0.649636	-0.155417		0.541769	0.519623	-0.130441		0.557565	0.526633	-0.0154778		0.53283	0.439609	-0.141627		0.577134	0.386501	-0.0893882		0.509271	0.39866	-0.148075		0.492147	0.0867488	-0.10026		0.510349	0.112602	-0.0113463		0.41809	0.0749231	-0.0445123		0.590196	0.0805594	-0.0170275		0.572754	0.0576484	-0.113129		0.63561	0.0314519	-0.11694		0.651674	0.0551997	-0.0174206		0.701118	0.0491535	-0.0415076		
98	1.61667	0.646918	1.39903	-0.0111501		0.531754	1.54872	0.138025		0.570283	1.54072	-0.200565		0.689916	1.78633	-0.0208778		0.607516	1.08766	0.120888		0.61358	1.07177	-0.140772		0.41273	1.06691	-0.00167382		0.642472	0.795831	0.194975		0.736754	0.763028	0.116312		0.68396	0.681403	0.194411		0.686753	0.586965	0.177104		0.714763	0.569916	0.0591326		0.653107	0.521287	0.183155		0.703391	0.446732	0.141577		0.615876	0.442835	0.19037		0.460582	0.205556	0.150079		0.491422	0.207799	0.0647581		0.399448	0.219405	0.0876262		0.532196	0.155019	0.0746334		0.498428	0.138721	0.177233		0.559882	0.0713615	0.196297		0.587981	0.0835111	0.0914287		0.633774	0.0514746	0.13141		0.552731	0.75655	-0.177656		0.640895	0.720498	-0.110461		0.547809	0.648566	-0.155922		0.526943	0.519054	-0.130924		0.542569	0.525736	-0.015918		0.517015	0.439109	-0.142069		0.560781	0.385687	-0.0896984		0.493138	0.398347	-0.148533		0.473395	0.0866232	-0.100506		0.491625	0.1124	-0.0115757		0.399239	0.0749564	-0.0448053		0.571337	0.0802824	-0.017209		0.553916	0.0573975	-0.113321		0.616727	0.0310868	-0.117089		0.63277	0.0548114	-0.0175607		0.682217	0.0486741	-0.0416153		
99	1.63333	0.645414	1.39824	-0.0111466		0.53011	1.5477	0.138148		0.569063	1.54029	-0.200408		0.688549	1.78554	-0.0201359		0.606044	1.08631	0.119918		0.611409	1.07005	-0.141735		0.410855	1.06657	-0.0021676		0.643033	0.796615	0.193954		0.738053	0.765771	0.115387		0.686517	0.682933	0.193049		0.691002	0.588626	0.175388		0.719575	0.572526	0.057418		0.660289	0.519395	0.181446		0.716954	0.449278	0.140357		0.630087	0.438025	0.189167		0.496258	0.187769	0.150407		0.526837	0.19216	0.0650755		0.434158	0.195485	0.0878272		0.572253	0.143419	0.0753693		0.540019	0.124892	0.178083		0.607361	0.0635875	0.197686		0.634331	0.0774484	0.0927339		0.682825	0.0500462	0.132974		0.545001	0.754707	-0.178079		0.632121	0.71654	-0.11069		0.537377	0.646893	-0.156282		0.513276	0.517953	-0.13124		0.528843	0.524328	-0.016208		0.502188	0.438126	-0.142333		0.54529	0.384259	-0.0898667		0.477861	0.397629	-0.14879		0.454554	0.086189	-0.100524		0.47297	0.111835	-0.0115947		0.380381	0.0746041	-0.0447448		0.552515	0.079763	-0.0173396		0.534965	0.0569308	-0.11344		0.597748	0.0305645	-0.117289		0.613924	0.0542362	-0.01777		0.663339	0.0480633	-0.0418824		
